<?xml version="1.0" encoding="UTF-8"?> <svg xmlns="http://www.w3.org/2000/svg" viewBox="0 0 200.88 118.85"><defs><style>.cls-1{fill:none;}</style></defs><g id="Layer_2" data-name="Layer 2"><g id="logomeri"><g id="TalTech"><path d="M76.76,61.12l1-3.37H88.11l1,3.37H99L88.41,32.28H77.49L66.92,61.12ZM83,40.84l2.83,9.3H80.11Z"></path><polygon points="55.56 61.12 64.24 61.12 64.24 39.89 71.89 39.89 71.89 32.28 47.87 32.28 47.87 39.89 55.56 39.89 55.56 61.12"></polygon><polygon points="120.1 53.51 109.22 53.51 109.22 32.28 100.54 32.28 100.54 61.12 120.1 61.12 120.1 53.51"></polygon><polygon points="73.88 91.76 95.63 91.76 95.63 84.15 82.56 84.15 82.56 81 95.33 81 95.33 73.39 82.56 73.39 82.56 70.53 95.63 70.53 95.63 62.93 73.88 62.93 73.88 91.76"></polygon><polygon points="47.87 70.53 55.56 70.53 55.56 91.76 64.24 91.76 64.24 70.53 71.89 70.53 71.89 62.93 47.87 62.93 47.87 70.53"></polygon><polygon points="146.37 62.93 146.37 73.13 136.1 73.13 136.1 62.93 127.41 62.93 127.41 91.76 136.1 91.76 136.1 80.74 146.37 80.74 146.37 91.76 155.05 91.76 155.05 62.93 146.37 62.93"></polygon><path d="M112.87,70.15a6.08,6.08,0,0,1,5.55,4.19l7.48-3.5c-1.72-4-5.5-8.39-13-8.39-9,0-15.77,6-15.77,14.92s6.79,14.91,15.77,14.91a13.53,13.53,0,0,0,13-8.43l-7.48-3.46a6.09,6.09,0,0,1-5.55,4.2,7.22,7.22,0,0,1,0-14.44Z"></path></g><rect class="cls-1" width="200.88" height="118.85"></rect></g></g></svg> 